<svg class="icon" style="width: 32;height: 32;vertical-align: middle;fill: currentColor;overflow: hidden;" viewBox="0 0 1024 1024" version="1.1" xmlns="http://www.w3.org/2000/svg" p-id="3535"><path d="M543.1296 545.3312m-400.5888 0a400.5888 400.5888 0 1 0 801.1776 0 400.5888 400.5888 0 1 0-801.1776 0Z" fill="#8F93FB" p-id="3536"></path><path d="M788.9408 229.12c55.6544 70.9632 127.1808 204.544 73.472 381.5936-46.5408 153.4464-176.128 267.4176-335.2064 287.488-57.1904 7.2192-123.136 4.6592-197.6832-14.08 61.8496 39.0656 135.0656 61.7984 213.6064 61.7984 221.2352 0 400.5888-179.3536 400.5888-400.5888 0-128.5632-60.6208-242.8928-154.7776-316.2112z" fill="#787CF5" p-id="3537"></path><path d="M759.3984 356.7104c11.8272 62.5152 25.4464 215.1936-74.6496 325.4784-63.1808 69.5808-245.9648 120.8832-386.3552 32.9216 53.504 56.8832 129.3824 92.416 213.6064 92.416 161.9968 0 293.3248-131.328 293.3248-293.3248 0-58.0096-16.896-112.0256-45.9264-157.4912z" fill="#E8A200" p-id="3538"></path><path d="M512 961.28c-246.528 0-447.0784-200.5504-447.0784-447.0784 0-37.2736 4.608-74.3424 13.6704-110.1312a15.32416 15.32416 0 0 1 18.6368-11.1104c8.2432 2.0992 13.2096 10.4448 11.1104 18.688a417.87392 417.87392 0 0 0-12.7488 102.6048c0 229.5808 186.7776 416.3584 416.3584 416.3584 229.5808 0 416.3584-186.7776 416.3584-416.3584 0-229.5808-186.7776-416.3584-416.3584-416.3584-109.568 0-212.992 42.1888-291.2768 118.8352-6.0416 5.9392-15.7696 5.8368-21.7088-0.2048s-5.8368-15.7696 0.2048-21.7088C283.2896 112.4352 394.3424 67.1232 512 67.1232c246.528 0 447.0784 200.5504 447.0784 447.0784 0 246.528-200.5504 447.0784-447.0784 447.0784z" fill="#333333" p-id="3539"></path><path d="M117.1968 354.56c-2.0992 0-4.1984-0.4096-6.1952-1.3312a15.39072 15.39072 0 0 1-7.8336-20.2752c5.9904-13.4656 12.6976-26.7776 19.968-39.5776a15.34464 15.34464 0 0 1 20.9408-5.7344c7.3728 4.1984 9.9328 13.568 5.7344 20.9408a419.92192 419.92192 0 0 0-18.5856 36.8128 15.23712 15.23712 0 0 1-14.0288 9.1648z" fill="#333333" p-id="3540"></path><path d="M329.5232 476.5184a12.8 12.8 0 0 1-12.4416-15.9744c2.1504-8.3456 4.7616-16.5376 7.7312-24.32a12.81536 12.81536 0 1 1 23.9616 9.1136c-2.6112 6.912-4.9152 14.1824-6.8608 21.6064a12.88192 12.88192 0 0 1-12.3904 9.5744zM359.3728 410.9312a12.8 12.8 0 0 1-10.3936-20.224c44.0832-62.1568 108.032-75.8272 110.7456-76.3904 6.912-1.3824 13.6704 3.072 15.104 9.984 1.4336 6.912-3.0208 13.6704-9.9328 15.104-0.768 0.1536-57.0368 12.5952-94.976 66.0992-2.56 3.584-6.5024 5.4272-10.5472 5.4272z" fill="#FFFFFF" p-id="3541"></path><path d="M798.7712 464.9472c-22.016-123.5456-122.368-218.5728-248.1664-233.1648-26.0096-3.0208-49.5616 15.616-52.5312 41.6256s15.616 49.5616 41.6256 52.5312c78.2336 9.0624 141.7728 64.768 161.9456 138.9568h-53.0432l100.1472 98.5088L848.896 464.896h-50.1248z" fill="#ECD300" p-id="3542"></path><path d="M748.7488 563.456l-38.656-37.9904c-1.4336 3.7376-2.5088 7.68-3.0208 11.8272-9.216 79.3088-65.4336 142.7968-140.544 162.4064v-54.1696l-98.5088 100.1472 98.5088 100.1472v-49.2032c124.5696-21.3504 220.0064-121.2928 234.752-248.3712 1.28-10.8544-1.28-21.2992-6.5536-29.952l-45.9776 45.1584z" fill="#FFFFFF" p-id="3543"></path><path d="M495.8208 704.6656c-79.36-9.216-143.104-65.792-162.56-141.2096H386.048L285.8496 464.9472l-100.1472 98.5088h50.6368c21.1456 124.7744 121.4464 220.672 248.5248 235.4176 1.8432 0.2048 3.6864 0.3072 5.5296 0.3072 23.7568 0 44.2368-17.8176 47.0528-41.9328a47.40096 47.40096 0 0 0-41.6256-52.5824z" fill="#76BFFF" p-id="3544"></path><path d="M794.7264 518.1952l-45.9776 45.2096-38.656-37.9904c-1.4336 3.7376-2.5088 7.68-3.0208 11.8272-9.216 79.3088-65.4336 142.7968-140.544 162.4064v-54.1696l-98.5088 100.1472 98.5088 100.1472v-49.2032c124.5696-21.3504 220.0064-121.2928 234.752-248.3712 1.28-10.9056-1.28-21.2992-6.5536-30.0032z" fill="#EAAB44" p-id="3545"></path><path d="M285.8496 464.9472l39.936 39.2704c1.28-3.4304 2.2016-7.0656 2.6112-10.8544 9.1136-78.7456 65.024-142.1824 139.6224-162.1504v51.6608l98.5088-100.1472-98.4576-100.096v51.6096C344.064 255.9488 248.8832 356.0448 234.24 482.4576c-1.1776 10.0352 0.9216 19.712 5.376 27.9552l46.2336-45.4656z" fill="#EE8385" p-id="3546"></path><path d="M863.0784 459.1104a15.32928 15.32928 0 0 0-14.2336-9.5232h-37.5296c-27.7504-125.184-130.304-218.1632-258.9696-233.0624-9.3184-1.0752-18.3808-0.0512-26.7776 2.7136l-46.592-47.4112a15.37536 15.37536 0 0 0-16.7936-3.4304 15.32928 15.32928 0 0 0-9.5232 14.2336v38.9632a298.92096 298.92096 0 0 0-87.296 34.1504 15.31904 15.31904 0 0 0-5.4784 20.992 15.31904 15.31904 0 0 0 20.992 5.4784 269.34272 269.34272 0 0 1 89.8048-32.8704c7.3728-1.28 12.6976-7.68 12.6976-15.1552V220.16l61.5936 62.6176-61.5424 62.6176V331.264c0-4.7616-2.2016-9.2672-5.9904-12.1856-3.7888-2.9184-8.704-3.8912-13.312-2.6624-75.8784 20.2752-132.3008 80.7936-147.968 156.7744l-19.5072-19.1488a15.3088 15.3088 0 0 0-21.5552 0l-24.8832 24.4736c6.0416-43.7248 22.6304-85.504 48.1792-121.088 4.9664-6.912 3.3792-16.4864-3.5328-21.4528a15.34976 15.34976 0 0 0-21.4528 3.5328c-29.7472 41.3696-48.5888 90.2144-54.4768 141.2608-1.024 8.8576-0.1024 17.664 2.5088 26.0096l-46.5408 45.7728c-4.4544 4.352-5.7856 11.008-3.4304 16.7936s7.9872 9.5232 14.2336 9.5232h37.9392c26.88 126.4128 129.6384 220.2624 259.4304 235.3152 2.4064 0.256 4.864 0.4096 7.2704 0.4096 6.9632 0 13.7728-1.28 20.3264-3.584l44.8512 45.568c2.9696 2.9696 6.912 4.608 10.9568 4.608 1.9456 0 3.9424-0.3584 5.8368-1.1264a15.32928 15.32928 0 0 0 9.5232-14.2336v-36.5568c126.0544-27.0848 219.648-129.792 234.6496-259.2768 1.1264-9.728-0.0512-19.3536-3.328-28.3648l46.4384-45.6704a15.3088 15.3088 0 0 0 3.4816-16.8448z m-79.4112 8.5504c1.28 7.3216 7.68 12.6464 15.104 12.6464h12.5952l-62.6176 61.5936-62.6176-61.5936h15.5648c4.7616 0 9.3184-2.2528 12.1856-6.0416 2.9184-3.7888 3.8912-8.7552 2.6112-13.3632-20.736-76.0832-81.9712-132.4544-158.464-147.5584l19.5072-19.8144a15.36 15.36 0 0 0 0-21.5552l-23.9104-24.2688C670.72 263.3216 762.88 351.1296 783.6672 467.6608z m-439.9616 27.4944C351.232 430.08 393.216 375.9616 452.7104 352.4608v30.464c0 6.2464 3.7888 11.8272 9.5232 14.2336 5.7856 2.3552 12.3904 1.024 16.7936-3.4304l52.6336-53.504c2.048 0.4608 4.1472 0.8192 6.2976 1.0752 64.7168 7.4752 118.6816 49.2032 142.3872 108.3392h-31.744c-6.2464 0-11.8784 3.7888-14.2336 9.5232-2.3552 5.7856-1.024 12.3904 3.4304 16.7936l55.04 54.1184c-0.4096 1.8432-0.8192 3.6352-1.024 5.4784-7.5776 65.5872-49.92 119.8592-109.9264 143.104v-33.0752c0-6.2464-3.7888-11.8784-9.5232-14.2336a15.488 15.488 0 0 0-16.7936 3.4304l-54.3744 55.296c-1.2288-0.2048-2.4064-0.512-3.6352-0.6144-65.8432-7.6288-120.2176-50.2272-143.36-110.592h31.7952c6.2464 0 11.8784-3.7888 14.2336-9.5232s1.024-12.3904-3.4304-16.7936L342.8864 499.5072c0.3072-1.4336 0.6144-2.9184 0.8192-4.352z m-92.16 65.7408a15.34464 15.34464 0 0 0-15.1552-12.8H223.232l27.136-26.6752 35.4816-34.8672 62.6176 61.5936h-15.2576c-4.7616 0-9.216 2.2016-12.1344 5.9392-2.9184 3.7376-3.8912 8.6528-2.7136 13.2608 19.7632 76.544 80.128 133.4784 156.5184 149.504l-17.7664 18.0736a15.36 15.36 0 0 0 0 21.5552l26.368 26.7776c-118.9376-15.2064-211.968-104.192-231.936-222.3616z m534.2208-12.3392c-14.7456 119.1936-103.6288 212.6336-221.8496 232.8576-7.3728 1.28-12.7488 7.68-12.7488 15.1552v11.6736l-61.5936-62.6176 61.5936-62.6176v16.64c0 4.7616 2.2016 9.2672 5.9904 12.1344 3.7888 2.9184 8.6528 3.8912 13.2608 2.7136 76.7488-20.0704 133.7856-81.152 149.1968-158.1568l18.3296 18.0224a15.32416 15.32416 0 0 0 21.504 0l26.3168-25.8048z" fill="#333333" p-id="3547"></path><path d="M315.9552 328.4992c3.9424 0 7.8848-1.4848 10.8544-4.5056 2.9696-2.9696 6.0416-5.888 9.1648-8.7552a15.32928 15.32928 0 0 0 1.024-21.7088 15.32928 15.32928 0 0 0-21.7088-1.024 304.64 304.64 0 0 0-10.1888 9.728 15.36 15.36 0 0 0 0 21.7088c2.9696 3.0208 6.912 4.5568 10.8544 4.5568z" fill="#333333" p-id="3548"></path><path d="M380.5184 333.824c-3.2256 0-6.4-1.1776-8.9088-3.584a12.84096 12.84096 0 0 1-0.3072-18.1248c31.1296-32.2048 69.6832-37.7856 71.2704-38.0416 7.0144-0.9728 13.4656 3.9424 14.4384 10.9568 0.9728 6.9632-3.8912 13.4144-10.9056 14.4384-0.512 0.0512-31.6928 4.9152-56.4224 30.464-2.4576 2.6112-5.8368 3.8912-9.1648 3.8912zM308.9408 643.84c-3.7376 0-7.4752-1.6384-9.984-4.7616-28.0576-34.9184-28.7744-73.8304-28.8256-75.52a12.84096 12.84096 0 0 1 12.6464-12.9536h0.1536c6.9632 0 12.6976 5.632 12.8 12.5952 0 0.5632 0.9216 32.1024 23.1424 59.8016 4.4032 5.5296 3.5328 13.568-1.9456 17.9712-2.3552 1.9456-5.1712 2.8672-7.9872 2.8672zM750.9504 468.5312c-6.8096 0-12.4416-5.376-12.8-12.2368-0.0512-0.6656-1.9968-32.1024-25.0368-59.0336a12.7488 12.7488 0 0 1 1.3824-18.0224c5.376-4.608 13.4656-3.9936 18.0736 1.3824 29.1328 34.048 31.1296 72.9088 31.1808 74.5472a12.73856 12.73856 0 0 1-12.2368 13.312c-0.2048 0.0512-0.3584 0.0512-0.5632 0.0512z" fill="#FFFFFF" p-id="3549"></path><path d="M573.6448 759.04h-0.6656a12.76416 12.76416 0 0 1-12.4928-13.056 12.86144 12.86144 0 0 1 13.0048-12.544c0.1536-0.0512 32 0.1536 60.5184-21.1968 5.632-4.2496 13.6704-3.1232 17.92 2.56 4.2496 5.632 3.072 13.6704-2.56 17.92-33.7408 25.344-70.2976 26.3168-75.7248 26.3168z" fill="#FFFFFF" p-id="3550"></path></svg>