<svg class="icon" style="width: 32;height: 32;vertical-align: middle;fill: currentColor;overflow: hidden;" viewBox="0 0 1024 1024" version="1.1" xmlns="http://www.w3.org/2000/svg" p-id="3992"><path d="M834.9184 909.1584H242.5856c-41.728 0-75.52-34.304-75.52-76.6464V249.7024c0-52.4288 26.5216-84.6848 78.1312-84.6848h431.9744c51.6608 0 83.2512 42.496 83.2512 94.9248v567.6032c0-0.0512-1.8432 67.9424 74.496 81.6128z" fill="#76BFFF" p-id="3993"></path><path d="M745.216 801.6384V207.5648c-10.0864-31.1808-31.6928-42.5984-61.6448-42.5984h-2.9184v654.9504c0 32.6656-0.512 89.2416-32.5632 89.2416h138.24s-41.1136-17.3056-41.1136-107.52z" fill="#659CF8" p-id="3994"></path><path d="M803.0208 277.3504v550.9632c0 44.6464 25.1904 80.896 56.2176 80.896 31.0784 0 56.2176-36.1984 56.2176-80.896V277.3504h-112.4352z" fill="#8F93FB" p-id="3995"></path><path d="M859.2384 909.1584c31.0784 0 56.2176-36.1984 56.2176-80.896V277.3504h-56.2176v533.4528c0 30.3616 5.6832 74.0352-27.648 87.8592 8.192 6.656 17.6128 10.496 27.648 10.496z" fill="#787CF5" p-id="3996"></path><path d="M106.6496 506.2144c-8.4992 0-15.36-6.8608-15.36-15.36v-15.5648c0-8.4992 6.8608-15.36 15.36-15.36s15.36 6.8608 15.36 15.36v15.5648c0 8.4992-6.912 15.36-15.36 15.36z" fill="#333333" p-id="3997"></path><path d="M915.456 261.9904h-146.432v-50.3296c0-64.6656-52.6336-117.2992-117.3504-117.2992H208.5888c-64.7168 0-117.3504 52.6336-117.3504 117.2992v177.5616c0 8.4992 6.8608 15.36 15.36 15.36s15.36-6.8608 15.36-15.36V211.6608c0-47.7696 38.8608-86.5792 86.6304-86.5792h443.136c47.7696 0 86.6304 38.8608 86.6304 86.5792V828.3136c0 25.344 9.8816 48.3328 25.9584 65.536H188.9792c-36.9152 0-66.9696-30.0544-66.9696-66.9696v-277.9136c0-8.4992-6.8608-15.36-15.36-15.36s-15.36 6.8608-15.36 15.36v277.9136c0 53.8624 43.8272 97.6896 97.6896 97.6896h645.9392c0.1536 0 0.256-0.0512 0.3584-0.0512 52.736-0.4096 95.5392-43.3664 95.5392-96.2048V277.3504c0-8.4992-6.8608-15.36-15.36-15.36z m-15.36 566.3232c0 35.6352-28.6208 64.6656-64.0512 65.4336-63.4368-11.9808-66.9184-61.8496-66.9696-71.3728V292.6592h131.072v535.6544z" fill="#333333" p-id="3998"></path><path d="M405.1456 467.8144H282.4192a20.1216 20.1216 0 0 1-20.1216-20.1216V281.3952a20.1216 20.1216 0 0 1 20.1216-20.1216h122.7776a20.1216 20.1216 0 0 1 20.1216 20.1216v166.3488a20.19328 20.19328 0 0 1-20.1728 20.0704z" fill="#ECD300" p-id="3999"></path><path d="M420.6592 415.232l3.9936-138.5984a20.03456 20.03456 0 0 0-19.456-15.3088h-21.2992v161.28c0 13.2608 1.4848 31.232-9.3184 38.2464 24.9856 1.4848 40.192 0 40.192 0l5.888-45.6192z" fill="#E8A200" p-id="4000"></path><path d="M392.448 483.1744H258.0992c-26.5728 0-48.2304-21.6064-48.2304-48.2304V352.4608c0-8.4992 6.8608-15.36 15.36-15.36s15.36 6.8608 15.36 15.36v82.5344c0 9.6256 7.8336 17.5104 17.5104 17.5104h134.2976c9.6256 0 17.5104-7.8336 17.5104-17.5104V264.1408c0-9.6256-7.8336-17.5104-17.5104-17.5104H258.0992c-9.6256 0-17.5104 7.8336-17.5104 17.5104v36.864c0 8.4992-6.8608 15.36-15.36 15.36s-15.36-6.8608-15.36-15.36v-36.864c0-26.5728 21.6064-48.2304 48.2304-48.2304h134.2976c26.5728 0 48.2304 21.6064 48.2304 48.2304v170.8544c0 26.5728-21.6064 48.1792-48.1792 48.1792zM641.9456 269.9264h-122.5728c-8.4992 0-15.36-6.8608-15.36-15.36s6.8608-15.36 15.36-15.36h122.5728c8.4992 0 15.36 6.8608 15.36 15.36s-6.8608 15.36-15.36 15.36zM641.9456 417.024h-122.5728c-8.4992 0-15.36-6.8608-15.36-15.36s6.8608-15.36 15.36-15.36h122.5728c8.4992 0 15.36 6.8608 15.36 15.36s-6.8608 15.36-15.36 15.36zM641.9456 599.04H225.28c-8.4992 0-15.36-6.8608-15.36-15.36s6.8608-15.36 15.36-15.36h416.6656c8.4992 0 15.36 6.8608 15.36 15.36s-6.8608 15.36-15.36 15.36zM641.9456 768.6656H225.28c-8.4992 0-15.36-6.8608-15.36-15.36s6.8608-15.36 15.36-15.36h416.6656c8.4992 0 15.36 6.8608 15.36 15.36s-6.8608 15.36-15.36 15.36z" fill="#333333" p-id="4001"></path><path d="M286.8224 401.0496a12.8 12.8 0 0 1-12.8-12.8v-10.4448a12.8 12.8 0 0 1 25.6 0v10.4448a12.8 12.8 0 0 1-12.8 12.8zM286.8224 350.0544a12.8 12.8 0 0 1-12.8-12.8V297.984a22.528 22.528 0 0 1 22.528-22.528h33.4336a12.8 12.8 0 0 1 0 25.6h-30.3616v36.1984a12.8 12.8 0 0 1-12.8 12.8z" fill="#FFFFFF" p-id="4002"></path></svg>