<svg class="icon" style="width: 32;height: 32;vertical-align: middle;fill: currentColor;overflow: hidden;" viewBox="0 0 1024 1024" version="1.1" xmlns="http://www.w3.org/2000/svg" p-id="3908"><path d="M178.6368 833.8432a362.5984 102.912 0 1 0 725.1968 0 362.5984 102.912 0 1 0-725.1968 0Z" fill="#8F93FB" p-id="3909"></path><path d="M703.6416 925.8496c118.6816-16.896 200.192-51.7632 200.192-92.0064 0-33.2288-55.552-62.7712-141.7216-81.5616 31.232 15.1552 59.6992 37.12 62.1568 67.2768 0.768 31.232-35.1744 67.84-120.6272 106.2912z" fill="#787CF5" p-id="3910"></path><path d="M816.8448 435.6608c0-151.8592-123.136-274.9952-274.9952-274.9952S266.8032 283.8016 266.8032 435.6608c0 144.7424 145.2544 286.1056 258.4576 378.2144a25.71776 25.71776 0 0 0 32.768-0.3072c117.4528-99.072 258.816-232.7552 258.816-377.9072z" fill="#ECD300" p-id="3911"></path><path d="M642.4064 179.712c41.0624 42.8544 118.5792 123.648 97.9456 266.9568-10.9056 68.5056-105.3696 264.96-229.4272 355.3792 4.8128 4.0448 9.6256 7.9872 14.3872 11.8272a25.71776 25.71776 0 0 0 32.768-0.3072c117.4016-99.072 258.7648-232.8064 258.7648-377.9072 0-116.3776-72.3456-215.7568-174.4384-255.9488z" fill="#E8A200" p-id="3912"></path><path d="M517.2224 835.0208c-9.6768 0-19.3536-3.2256-27.2896-9.6768-158.72-129.1264-249.6-245.0944-277.8112-354.5088-2.0992-8.192 2.816-16.5888 11.0592-18.688 8.192-2.0992 16.5888 2.816 18.688 11.0592 26.1632 101.376 116.1216 215.1936 267.4688 338.3296 4.6592 3.7888 11.4176 3.7376 16.0768-0.1536 136.5504-115.2 276.1216-252.7744 276.1216-399.4624 0-156.5184-127.3344-283.8528-283.8528-283.8528-121.1392 0-229.0176 76.9024-268.4416 191.3344a15.31904 15.31904 0 0 1-19.5072 9.5232 15.33952 15.33952 0 0 1-9.5232-19.5072c43.7248-126.8224 163.2768-212.0192 297.472-212.0192 173.4656 0 314.5728 141.1072 314.5728 314.5728 0 159.232-145.1008 303.1552-287.0272 422.912a43.93984 43.93984 0 0 1-28.0064 10.1376z" fill="#333333" p-id="3913"></path><path d="M218.8288 431.9744c-8.0384 0-14.7968-6.2464-15.3088-14.3872-0.3072-5.2224-0.512-10.496-0.512-15.7184 0-8.4992 6.8608-15.36 15.36-15.36s15.36 6.8608 15.36 15.36c0 4.5568 0.1536 9.216 0.4096 13.824a15.36 15.36 0 0 1-14.3872 16.2816h-0.9216z" fill="#333333" p-id="3914"></path><path d="M534.0672 414.3616m-91.136 0a91.136 91.136 0 1 0 182.272 0 91.136 91.136 0 1 0-182.272 0Z" fill="#FF7D7B" p-id="3915"></path><path d="M535.9104 323.328c19.2 12.288 52.7872 41.6256 47.9232 94.8224-5.4272 41.1136-48.4352 74.9056-80.1792 82.0736 9.5232 3.3792 19.7632 5.3248 30.464 5.3248 50.3296 0 91.136-40.8064 91.136-91.136-0.0512-49.7664-39.8848-90.0608-89.344-91.0848z" fill="#F75252" p-id="3916"></path><path d="M517.632 522.2912c-66.4064 0-120.4224-54.016-120.4224-120.4224s54.016-120.4224 120.4224-120.4224 120.4224 54.016 120.4224 120.4224-54.0672 120.4224-120.4224 120.4224z m0-210.1248c-49.4592 0-89.7024 40.2432-89.7024 89.7024s40.2432 89.7024 89.7024 89.7024 89.7024-40.2432 89.7024-89.7024-40.2432-89.7024-89.7024-89.7024zM244.7872 924.6208c-1.3312 0-2.6624-0.1536-3.9936-0.512-88.32-23.6544-135.0144-56.9344-135.0144-96.2048 0-53.4528 83.9168-84.48 154.3168-101.0688 8.2432-1.9456 16.5376 3.1744 18.4832 11.4176 1.9456 8.2432-3.1744 16.5376-11.4176 18.4832-96.4096 22.7328-130.6624 52.5312-130.6624 71.168 0 16.7936 29.3888 44.3392 112.2304 66.56 8.192 2.2016 13.056 10.5984 10.8544 18.7904a15.3088 15.3088 0 0 1-14.7968 11.3664zM515.5328 955.136c-60.5696 0-118.8352-3.7888-173.1072-11.1616a15.39584 15.39584 0 0 1-13.1584-17.3056 15.45216 15.45216 0 0 1 17.3056-13.1584c52.8896 7.2192 109.7728 10.9056 168.96 10.9056 234.8032 0 378.9824-56.2176 378.9824-96.5632 0-19.3024-36.1472-49.9712-137.9328-72.8576a15.34464 15.34464 0 0 1-11.6224-18.3296 15.31904 15.31904 0 0 1 18.3296-11.6224c104.3968 23.4496 161.9456 59.9552 161.9456 102.8096 0 82.688-211.0976 127.2832-409.7024 127.2832z" fill="#333333" p-id="3917"></path><path d="M318.4128 381.2864c-0.9728 0-1.9456-0.1024-2.9696-0.3584a12.81024 12.81024 0 0 1-9.5232-15.4112c0.9728-4.1984 2.0992-8.3968 3.328-12.4928a12.78464 12.78464 0 0 1 15.9232-8.6016c6.7584 1.9968 10.6496 9.1648 8.6016 15.9232-1.0752 3.6352-2.048 7.3216-2.9696 11.0592-1.28 5.9392-6.5536 9.8816-12.3904 9.8816zM340.992 324.4544a12.84096 12.84096 0 0 1-11.0592-19.2512c28.5696-49.2544 67.0208-72.192 68.6592-73.1648a12.78976 12.78976 0 1 1 12.9536 22.0672c-0.3584 0.2048-34.4576 20.7872-59.4944 63.9488-2.3552 4.096-6.656 6.4-11.0592 6.4zM470.8864 409.856a12.78976 12.78976 0 0 1-12.5952-15.0528c4.8128-27.0336 24.1152-41.0624 24.9344-41.6768a12.8512 12.8512 0 0 1 17.8688 2.9696c4.096 5.7344 2.7648 13.6704-2.8672 17.8176-0.6656 0.512-11.8272 9.1136-14.6944 25.3952a12.91264 12.91264 0 0 1-12.6464 10.5472zM273.5616 864c-1.1776 0-2.4064-0.1536-3.584-0.512-12.7488-3.7376-51.456-15.0528-48.7936-40.704 2.0992-19.7632 28.2624-30.6176 51.712-32.4096a12.78976 12.78976 0 0 1 1.9456 25.4976c-13.824 1.024-24.32 6.144-27.5456 9.2672 2.048 2.2016 8.8576 7.6288 29.8496 13.7728 6.8096 1.9968 10.6496 9.1136 8.704 15.872a12.84096 12.84096 0 0 1-12.288 9.216z" fill="#FFFFFF" p-id="3918"></path></svg>